<svg width="23" height="22" viewBox="0 0 23 22" fill="none" xmlns="http://www.w3.org/2000/svg">
<path d="M6.94617 7.79175L6.94617 7.32072C6.94617 7.21645 6.94617 7.16431 6.94714 7.12022C6.99434 4.98018 8.71793 3.25658 10.858 3.20939C10.9021 3.20841 10.9542 3.20841 11.0585 3.20841V3.20841C11.1627 3.20841 11.2149 3.20841 11.259 3.20939C13.399 3.25658 15.1226 4.98018 15.1698 7.12022C15.1708 7.16431 15.1708 7.21645 15.1708 7.32072L15.1708 7.79175" stroke="white" stroke-linecap="round"/>
<path d="M14.257 12.3751V10.5417" stroke="white" stroke-linecap="round"/>
<path d="M7.86005 12.3751V10.5417" stroke="white" stroke-linecap="round"/>
<path d="M5.11853 11.3917C5.11853 9.69469 5.11853 8.84616 5.64574 8.31896C6.17295 7.79175 7.02147 7.79175 8.71853 7.79175H13.3985C15.0956 7.79175 15.9441 7.79175 16.4713 8.31896C16.9985 8.84616 16.9985 9.69469 16.9985 11.3917V12.8517C16.9985 15.6218 16.9985 17.0069 16.1529 17.8795C16.131 17.902 16.1088 17.9243 16.0863 17.9461C15.2137 18.7917 13.8286 18.7917 11.0585 18.7917V18.7917C8.28845 18.7917 6.9034 18.7917 6.03079 17.9461C6.00823 17.9243 5.98601 17.902 5.96415 17.8795C5.11853 17.0069 5.11853 15.6218 5.11853 12.8517V11.3917Z" stroke="white"/>
</svg>
